<?xml version="1.0" encoding="UTF-8" standalone="no"?>
<!-- Created with Inkscape (http://www.inkscape.org/) -->

<svg
   xmlns:dc="http://purl.org/dc/elements/1.1/"
   xmlns:cc="http://creativecommons.org/ns#"
   xmlns:rdf="http://www.w3.org/1999/02/22-rdf-syntax-ns#"
   xmlns:svg="http://www.w3.org/2000/svg"
   xmlns="http://www.w3.org/2000/svg"
   xmlns:xlink="http://www.w3.org/1999/xlink"
   xmlns:sodipodi="http://sodipodi.sourceforge.net/DTD/sodipodi-0.dtd"
   xmlns:inkscape="http://www.inkscape.org/namespaces/inkscape"
   width="410mm"
   height="410mm"
   viewBox="0 0 410 410"
   version="1.1"
   id="svg4766"
   inkscape:version="0.92.1 r15371"
   sodipodi:docname="register.svg">
  <defs
     id="defs4760">
    <linearGradient
       inkscape:collect="always"
       id="linearGradient4961">
      <stop
         style="stop-color:#556b2f;stop-opacity:1;"
         offset="0"
         id="stop4957" />
      <stop
         style="stop-color:#556b2f;stop-opacity:0;"
         offset="1"
         id="stop4959" />
    </linearGradient>
    <linearGradient
       inkscape:collect="always"
       id="linearGradient4953">
      <stop
         style="stop-color:#ffd700;stop-opacity:1;"
         offset="0"
         id="stop4949" />
      <stop
         style="stop-color:#ffd700;stop-opacity:0;"
         offset="1"
         id="stop4951" />
    </linearGradient>
    <linearGradient
       inkscape:collect="always"
       id="linearGradient4941">
      <stop
         style="stop-color:#0000ff;stop-opacity:1;"
         offset="0"
         id="stop4937" />
      <stop
         style="stop-color:#0000ff;stop-opacity:0;"
         offset="1"
         id="stop4939" />
    </linearGradient>
    <linearGradient
       inkscape:collect="always"
       id="linearGradient4929">
      <stop
         style="stop-color:#e3833d;stop-opacity:1;"
         offset="0"
         id="stop4925" />
      <stop
         style="stop-color:#e3833d;stop-opacity:0;"
         offset="1"
         id="stop4927" />
    </linearGradient>
    <linearGradient
       inkscape:collect="always"
       id="linearGradient4905">
      <stop
         style="stop-color:#90ee90;stop-opacity:1;"
         offset="0"
         id="stop4901" />
      <stop
         style="stop-color:#90ee90;stop-opacity:0"
         offset="1"
         id="stop4903" />
    </linearGradient>
    <linearGradient
       inkscape:collect="always"
       xlink:href="#linearGradient4905"
       id="linearGradient4907"
       x1="2.1177852"
       y1="192.71307"
       x2="278.37061"
       y2="141.30832"
       gradientUnits="userSpaceOnUse"
       gradientTransform="translate(8.5526249,-26.726953)" />
    <linearGradient
       inkscape:collect="always"
       xlink:href="#linearGradient4929"
       id="linearGradient4935"
       x1="-12.36724"
       y1="273.71848"
       x2="-3.0143597"
       y2="273.71848"
       gradientUnits="userSpaceOnUse" />
    <linearGradient
       inkscape:collect="always"
       xlink:href="#linearGradient4941"
       id="linearGradient4947"
       x1="-353.50641"
       y1="357.01196"
       x2="-343.52643"
       y2="357.01196"
       gradientUnits="userSpaceOnUse" />
    <linearGradient
       inkscape:collect="always"
       xlink:href="#linearGradient4953"
       id="linearGradient4955"
       x1="31.491034"
       y1="276.18561"
       x2="42.421104"
       y2="276.18561"
       gradientUnits="userSpaceOnUse" />
    <linearGradient
       inkscape:collect="always"
       xlink:href="#linearGradient4961"
       id="linearGradient4963"
       x1="8.3880806"
       y1="281.39334"
       x2="25.429943"
       y2="281.39334"
       gradientUnits="userSpaceOnUse" />
  </defs>
  <sodipodi:namedview
     id="base"
     pagecolor="#ffffff"
     bordercolor="#666666"
     borderopacity="1.0"
     inkscape:pageopacity="0.0"
     inkscape:pageshadow="2"
     inkscape:zoom="0.24748737"
     inkscape:cx="270.30141"
     inkscape:cy="813.35331"
     inkscape:document-units="mm"
     inkscape:current-layer="layer1"
     showgrid="false"
     inkscape:object-nodes="false"
     inkscape:object-paths="false"
     inkscape:window-width="1366"
     inkscape:window-height="745"
     inkscape:window-x="-8"
     inkscape:window-y="-8"
     inkscape:window-maximized="1" />
  <metadata
     id="metadata4763">
    <rdf:RDF>
      <cc:Work
         rdf:about="">
        <dc:format>image/svg+xml</dc:format>
        <dc:type
           rdf:resource="http://purl.org/dc/dcmitype/StillImage" />
        <dc:title></dc:title>
      </cc:Work>
    </rdf:RDF>
  </metadata>
  <g
     inkscape:label="Layer 1"
     inkscape:groupmode="layer"
     id="layer1"
     transform="translate(0,113)">
    <rect
       style="fill:url(#linearGradient4907);fill-opacity:1;fill-rule:evenodd;stroke:#000000;stroke-width:0.65528673px;stroke-linecap:butt;stroke-linejoin:miter;stroke-opacity:1"
       id="rect4829"
       width="206.80586"
       height="208.27879"
       x="10.998054"
       y="61.846725"
       rx="103.40293"
       ry="104.1394" />
    <g
       transform="matrix(1.8443637,0,0,1.9260509,66.528227,-383.43847)"
       id="layer1-8"
       inkscape:label="Layer 1">
      <path
         sodipodi:nodetypes="ccccccccc"
         inkscape:connector-curvature="0"
         id="path4549"
         d="m 2.8287681,258.36083 0.5806177,29.56926 23.2247002,8.5216 22.644087,-7.84922 -0.435463,-29.5667 v 0 l -23.453145,7.1475 -22.4156425,-7.95737 -0.1451544,0.13493"
         style="fill:#2e8b57;fill-opacity:1;fill-rule:evenodd;stroke:#000000;stroke-width:0.26699468px;stroke-linecap:butt;stroke-linejoin:miter;stroke-opacity:1" />
      <path
         sodipodi:nodetypes="cccccccc"
         inkscape:connector-curvature="0"
         id="path4555"
         d="m 7.1089268,263.54856 0.6381148,21.08036 18.5359734,6.77136 18.770428,-6.63137 -0.605499,-20.55722 v 0 l -18.754118,5.31611 z"
         style="fill:#eee8aa;fill-rule:evenodd;stroke:#000000;stroke-width:0.34572339px;stroke-linecap:butt;stroke-linejoin:miter;stroke-opacity:1" />
      <rect
         transform="matrix(0.9117369,-0.41077467,0.93732979,0.3484435,0,0)"
         ry="0"
         y="352.02261"
         x="-353.32132"
         height="9.978714"
         width="9.6098003"
         id="rect4559"
         style="fill:url(#linearGradient4947);fill-opacity:1;fill-rule:evenodd;stroke:#000000;stroke-width:0.37020481px;stroke-linecap:butt;stroke-linejoin:miter;stroke-opacity:1" />
      <path
         sodipodi:nodetypes="cccccc"
         inkscape:connector-curvature="0"
         id="path4563"
         d="m 8.4644532,284.68352 c 0.7914235,-3.52891 2.6690938,-5.88591 5.4713588,-7.69299 1.691149,3.07912 3.120379,1.42023 3.449075,1.30277 0.04787,-0.0156 2.275207,1.9516 3.195228,-1.19047 2.981908,2.67393 4.224779,4.97774 4.761119,7.65167 -4.691087,1.35165 -10.074711,1.53515 -16.8767808,-0.071 z"
         style="fill:url(#linearGradient4963);fill-opacity:1;fill-rule:evenodd;stroke:#000000;stroke-width:0.15274458px;stroke-linecap:butt;stroke-linejoin:miter;stroke-opacity:1" />
      <path
         inkscape:connector-curvature="0"
         id="path4573"
         d="M -17.77888,284.12074 Z"
         style="fill:none;fill-rule:evenodd;stroke:#000000;stroke-width:0.26458335px;stroke-linecap:butt;stroke-linejoin:miter;stroke-opacity:1" />
      <path
         inkscape:transform-center-y="-12.99129"
         inkscape:transform-center-x="-9.9267875"
         transform="matrix(0.99200057,-0.12623338,0.09109992,0.99584176,0,0)"
         d="m -3.3515587,270.25978 a 4.4816713,6.3545508 0 0 1 -1.9935171,7.0074 4.4816713,6.3545508 0 0 1 -5.3093352,-0.64895 4.4816713,6.3545508 0 0 1 -1.118338,-7.38776 l 4.0824991,2.62161 z"
         sodipodi:end="3.5668508"
         sodipodi:start="6.0299092"
         sodipodi:ry="6.3545508"
         sodipodi:rx="4.4816713"
         sodipodi:cy="271.85208"
         sodipodi:cx="-7.6902499"
         sodipodi:type="arc"
         id="path4575"
         style="opacity:0.54000005;fill:url(#linearGradient4935);fill-opacity:1;fill-rule:evenodd;stroke:#cd5c5c;stroke-width:0.38528487;stroke-linecap:round;stroke-linejoin:round;stroke-miterlimit:4;stroke-dasharray:none;stroke-dashoffset:0;stroke-opacity:1" />
      <path
         inkscape:connector-curvature="0"
         id="path4581"
         d="M -10.919312,270.26161 Z"
         style="fill:none;fill-rule:evenodd;stroke:#000000;stroke-width:0.26458335px;stroke-linecap:butt;stroke-linejoin:miter;stroke-opacity:1" />
      <path
         sodipodi:nodetypes="cccccccccccc"
         inkscape:connector-curvature="0"
         id="path4591"
         d="m 46.90065,266.01218 -0.140485,-0.009 0.702425,21.56664 -18.965497,6.82782 -2.214078,-2.99736 -1.298051,3.02788 v 0 l -19.527931,-7.71198 -0.1399912,0.14238 -0.9829023,-23.36735 2.9454021,0.19082 v 0"
         style="fill:none;fill-opacity:1;fill-rule:evenodd;stroke:#000000;stroke-width:0.25401613px;stroke-linecap:butt;stroke-linejoin:miter;stroke-opacity:1" />
      <path
         inkscape:connector-curvature="0"
         id="path4595"
         d="m 46.760166,266.00318 -2.312221,-1.79149 v 0"
         style="fill:none;fill-rule:evenodd;stroke:#000000;stroke-width:0.26458335px;stroke-linecap:butt;stroke-linejoin:miter;stroke-opacity:1" />
      <path
         inkscape:connector-curvature="0"
         id="path4597"
         d="m 45.053444,284.76891 2.409145,2.80091 v 0"
         style="fill:none;fill-rule:evenodd;stroke:#000000;stroke-width:0.26458335px;stroke-linecap:butt;stroke-linejoin:miter;stroke-opacity:1" />
      <path
         inkscape:connector-curvature="0"
         id="path4599"
         d="m 5.457033,286.71618 2.2900085,-2.08726 v 0"
         style="fill:none;fill-rule:evenodd;stroke:#000000;stroke-width:0.26458335px;stroke-linecap:butt;stroke-linejoin:miter;stroke-opacity:1" />
      <path
         inkscape:connector-curvature="0"
         id="path4601"
         d="m 25.693826,269.5278 0.589189,21.87248"
         style="fill:none;fill-rule:evenodd;stroke:#000000;stroke-width:0.26458335px;stroke-linecap:butt;stroke-linejoin:miter;stroke-opacity:1" />
      <path
         inkscape:transform-center-y="-0.22904714"
         inkscape:transform-center-x="-0.013844513"
         inkscape:connector-curvature="0"
         id="path4603"
         d="m 31.028318,282.82498 -0.839551,1.61917 1.487841,-1.19916 z"
         style="fill:#000000;fill-rule:evenodd;stroke:#000000;stroke-width:0.07074051px;stroke-linecap:butt;stroke-linejoin:miter;stroke-opacity:1" />
      <path
         sodipodi:nodetypes="ccccc"
         inkscape:transform-center-y="0.52912656"
         inkscape:transform-center-x="1.8226223"
         inkscape:connector-curvature="0"
         id="path4605"
         d="m 31.028318,282.82498 0.57562,-1.50185 v 0 l 1.316123,1.27462 -1.243453,0.64724"
         style="fill:#daa520;fill-rule:evenodd;stroke:#000000;stroke-width:0.07315601px;stroke-linecap:butt;stroke-linejoin:miter;stroke-opacity:1" />
      <path
         inkscape:transform-center-y="-0.062881744"
         inkscape:transform-center-x="0.78971587"
         inkscape:connector-curvature="0"
         id="path4607"
         d="m 31.603938,281.32313 9.300602,-11.47275 1.403865,1.31965 -9.388344,11.35242 z"
         style="fill:url(#linearGradient4955);fill-opacity:1;fill-rule:evenodd;stroke:#000000;stroke-width:0.16468225px;stroke-linecap:butt;stroke-linejoin:miter;stroke-opacity:1" />
      <path
         inkscape:connector-curvature="0"
         id="path4609"
         d="m 29.258158,286.64058 12.599207,-4.33973 v 0"
         style="fill:none;fill-rule:evenodd;stroke:#000000;stroke-width:0.26458335px;stroke-linecap:butt;stroke-linejoin:miter;stroke-opacity:1" />
      <path
         inkscape:connector-curvature="0"
         id="path4611"
         d="M 29.53814,279.921 Z"
         style="fill:none;fill-rule:evenodd;stroke:#000000;stroke-width:0.26458335px;stroke-linecap:butt;stroke-linejoin:miter;stroke-opacity:1" />
      <path
         inkscape:connector-curvature="0"
         id="path4613"
         d="M 29.818122,282.30085 Z"
         style="fill:none;fill-rule:evenodd;stroke:#000000;stroke-width:0.26458335px;stroke-linecap:butt;stroke-linejoin:miter;stroke-opacity:1" />
      <path
         inkscape:connector-curvature="0"
         id="path4615"
         d="m 30.098104,273.20143 9.37941,-2.65984 v 0 0"
         style="fill:none;fill-rule:evenodd;stroke:#000000;stroke-width:0.26458335px;stroke-linecap:butt;stroke-linejoin:miter;stroke-opacity:1" />
      <path
         inkscape:connector-curvature="0"
         id="path4617"
         d="m 30.938053,277.96113 3.499779,-0.83995 v 0.13999 0"
         style="fill:none;fill-rule:evenodd;stroke:#000000;stroke-width:0.26458335px;stroke-linecap:butt;stroke-linejoin:miter;stroke-opacity:1" />
      <path
         inkscape:connector-curvature="0"
         id="path4619"
         d="m 38.637568,276.42122 2.799824,-0.55996 h -0.139991"
         style="fill:none;fill-rule:evenodd;stroke:#000000;stroke-width:0.26458335px;stroke-linecap:butt;stroke-linejoin:miter;stroke-opacity:1" />
      <path
         inkscape:connector-curvature="0"
         id="path4621"
         d="m 35.417769,280.90094 5.59965,-1.81989 v 0"
         style="fill:none;fill-rule:evenodd;stroke:#000000;stroke-width:0.26458335px;stroke-linecap:butt;stroke-linejoin:miter;stroke-opacity:1" />
    </g>
    <path
       style="fill:none;fill-rule:evenodd;stroke:#000000;stroke-width:0.5291667;stroke-linecap:butt;stroke-linejoin:miter;stroke-miterlimit:4;stroke-dasharray:none;stroke-opacity:1"
       d="M -149.67857,264.49405 C -109.0722,254.20013 -45.061825,180.65 -30.238094,130.69048 v 0"
       id="path4967"
       inkscape:connector-curvature="0"
       sodipodi:nodetypes="ccc" />
    <path
       sodipodi:nodetypes="ccc"
       inkscape:connector-curvature="0"
       id="path4971"
       d="M -99.862087,152.6131 C -139.92849,142.31918 -203.08768,68.769049 -217.71429,18.809528 v 0"
       style="fill:none;fill-rule:evenodd;stroke:#000000;stroke-width:0.26281828px;stroke-linecap:butt;stroke-linejoin:miter;stroke-opacity:1" />
    <path
       style="fill:none;fill-rule:evenodd;stroke:#000000;stroke-width:0.26458332px;stroke-linecap:butt;stroke-linejoin:miter;stroke-opacity:1"
       d="m -193.33482,191.35566 -1.13393,42.71131 v 0 l 15.30804,-13.41816 -3.96875,-10.77232 -11.1503,9.82738 -10.20536,-9.26041 4.34673,-7.37054 6.2366,6.04762 7.37054,-5.85863 -2.45685,-5.48066 -4.7247,3.77977 -3.96875,-3.77977 z"
       id="path5005"
       inkscape:connector-curvature="0" />
    <path
       style="fill:none;fill-rule:evenodd;stroke:#000000;stroke-width:0.26458332px;stroke-linecap:butt;stroke-linejoin:miter;stroke-opacity:1"
       d="m -194.46875,234.06697 -0.18899,13.04018 v 0"
       id="path5007"
       inkscape:connector-curvature="0" />
    <path
       inkscape:connector-curvature="0"
       id="path5009"
       d="m -129.01215,211.95537 -13.18931,42.71131 v 0 l 19.09535,-13.41816 -0.92823,-10.77232 -13.92411,9.82738 -7.59158,-9.26041 6.42709,-7.37054 4.52964,6.04762 9.02416,-5.85863 -0.90992,-5.48066 -5.79155,3.77977 -2.9019,-3.77977 z"
       style="fill:none;fill-rule:evenodd;stroke:#000000;stroke-width:0.5291667;stroke-linecap:butt;stroke-linejoin:miter;stroke-miterlimit:4;stroke-dasharray:none;stroke-opacity:1" />
    <path
       inkscape:connector-curvature="0"
       id="path5011"
       d="m -142.20146,254.66668 -7.73437,9.7059 v 0"
       style="fill:none;fill-rule:evenodd;stroke:#000000;stroke-width:0.53948539;stroke-linecap:butt;stroke-linejoin:miter;stroke-miterlimit:4;stroke-dasharray:none;stroke-opacity:1"
       inkscape:transform-center-x="15.083062"
       inkscape:transform-center-y="-6.8773669" />
    <path
       inkscape:transform-center-y="-11.204497"
       inkscape:transform-center-x="16.139488"
       style="fill:none;fill-rule:evenodd;stroke:#000000;stroke-width:0.5291667;stroke-linecap:butt;stroke-linejoin:miter;stroke-miterlimit:4;stroke-dasharray:none;stroke-opacity:1"
       d="m -117.3394,235.12153 -5.90542,15.81269 v 0"
       id="path5013"
       inkscape:connector-curvature="0" />
    <path
       style="fill:none;fill-rule:evenodd;stroke:#000000;stroke-width:0.5291667;stroke-linecap:butt;stroke-linejoin:miter;stroke-miterlimit:4;stroke-dasharray:none;stroke-opacity:1"
       d="m -109.60354,192.41022 -7.73586,42.71131 v 0 l 17.382117,-13.41816 -2.303647,-10.77232 -12.66936,9.82738 -8.77396,-9.26041 5.48601,-7.37054 5.30181,6.04762 8.27612,-5.85863 -1.60971,-5.48066 -5.30895,3.77977 -3.3845,-3.77977 z"
       id="path5015"
       inkscape:connector-curvature="0" />
    <path
       inkscape:transform-center-y="-13.667423"
       inkscape:transform-center-x="15.050205"
       style="fill:none;fill-rule:evenodd;stroke:#000000;stroke-width:0.29183823px;stroke-linecap:butt;stroke-linejoin:miter;stroke-opacity:1"
       d="m -94.400867,214.06122 -7.019983,19.28858 v 0"
       id="path5017"
       inkscape:connector-curvature="0" />
    <path
       inkscape:connector-curvature="0"
       id="path5019"
       d="m -88.242204,176.0181 -6.161742,38.04601 v 0 l 16.887579,-11.95251 -2.700666,-9.59568 -12.307158,8.75395 -9.115259,-8.24891 5.214372,-6.56546 5.524702,5.38705 8.060191,-5.2187 -1.811681,-4.88202 -5.16965,3.36691 -3.5238,-3.36691 z"
       style="fill:none;fill-rule:evenodd;stroke:#000000;stroke-width:0.5291667;stroke-linecap:butt;stroke-linejoin:miter;stroke-miterlimit:4;stroke-dasharray:none;stroke-opacity:1" />
    <path
       style="fill:none;fill-rule:evenodd;stroke:#000000;stroke-width:0.5291667;stroke-linecap:butt;stroke-linejoin:miter;stroke-miterlimit:4;stroke-dasharray:none;stroke-opacity:1"
       d="m -66.73261,155.31367 -5.483082,35.49798 v 0 l 15.027565,-11.15202 -2.403212,-8.95303 -10.951636,8.16767 -8.111296,-7.69646 4.640056,-6.12575 4.916206,5.02626 7.172434,-4.86919 -1.612141,-4.55506 -4.60026,3.14142 -3.135685,-3.14142 z"
       id="path5021"
       inkscape:connector-curvature="0" />
    <path
       inkscape:connector-curvature="0"
       id="path5023"
       d="m 50.728291,208.98598 -6.399445,20.08047 v 0"
       style="fill:none;fill-rule:evenodd;stroke:#000000;stroke-width:0.31228343px;stroke-linecap:butt;stroke-linejoin:miter;stroke-opacity:1"
       inkscape:transform-center-x="17.489656"
       inkscape:transform-center-y="-14.228539" />
    <path
       inkscape:connector-curvature="0"
       id="path5025"
       d="m -49.84177,139.26941 -3.202459,25.6135 v 0 l 11.390442,-8.04672 -2.147306,-6.46003 -8.299785,5.89335 -6.564256,-5.55336 3.43564,-4.42002 3.989523,3.62669 5.450248,-3.51336 -1.396452,-3.28669 -3.495125,2.26669 -2.542667,-2.26669 z"
       style="fill:none;fill-rule:evenodd;stroke:#000000;stroke-width:0.51012492;stroke-linecap:butt;stroke-linejoin:miter;stroke-miterlimit:4;stroke-dasharray:none;stroke-opacity:1" />
    <path
       inkscape:connector-curvature="0"
       id="path5027"
       d="m -78.350835,259.70728 -44.238565,6.6108 v 0 l 15.24529,13.0301 10.774107,-5.96621 -11.160027,-9.48132 8.649757,-11.99296 8.008151,3.05332 -5.687411,7.39956 6.718271,6.38308 5.44214,-3.47765 -4.33163,-4.0873 3.54825,-4.69634 z"
       style="fill:none;fill-rule:evenodd;stroke:#000000;stroke-width:0.5291667;stroke-linecap:butt;stroke-linejoin:miter;stroke-miterlimit:4;stroke-dasharray:none;stroke-opacity:1"
       inkscape:transform-center-x="-2.1377831"
       inkscape:transform-center-y="-5.842818" />
    <path
       inkscape:connector-curvature="0"
       id="path5031"
       d="m -149.93583,264.37258 27.34643,1.9455 v 0"
       style="fill:none;fill-rule:evenodd;stroke:#000000;stroke-width:0.55192083;stroke-linecap:butt;stroke-linejoin:miter;stroke-miterlimit:4;stroke-dasharray:none;stroke-opacity:1" />
    <path
       style="fill:none;fill-rule:evenodd;stroke:#000000;stroke-width:0.53128332;stroke-linecap:butt;stroke-linejoin:miter;stroke-miterlimit:4;stroke-dasharray:none;stroke-opacity:1"
       d="m -123.40479,251.78196 25.34395,-6.05372 v 0"
       id="path5033"
       inkscape:connector-curvature="0" />
    <path
       inkscape:transform-center-y="-5.718313"
       inkscape:transform-center-x="-2.1377831"
       style="fill:none;fill-rule:evenodd;stroke:#000000;stroke-width:0.5291667;stroke-linecap:butt;stroke-linejoin:miter;stroke-miterlimit:4;stroke-dasharray:none;stroke-opacity:1"
       d="m 181.37491,217.17397 -44.23856,15.72534 v 0 l 15.24529,9.88909 10.7741,-8.18602 -11.16002,-7.182 8.64975,-13.77508 8.00815,1.40338 -5.68741,8.57135 6.71827,4.9989 5.44214,-4.5989 -4.33163,-3.19485 3.54825,-5.42739 z"
       id="path5035"
       inkscape:connector-curvature="0" />
    <path
       inkscape:connector-curvature="0"
       id="path5037"
       d="m -101.38165,233.13735 29.982878,-15.62913 v 0"
       style="fill:none;fill-rule:evenodd;stroke:#000000;stroke-width:0.5291667;stroke-linecap:butt;stroke-linejoin:miter;stroke-miterlimit:4;stroke-dasharray:none;stroke-opacity:1" />
    <path
       inkscape:connector-curvature="0"
       id="path5039"
       d="m -32.712776,197.60554 -38.685996,19.90268 v 0 l 13.331789,6.90984 9.421804,-8.76525 -9.759285,-5.00686 7.564089,-13.51564 7.003014,0.21974 -4.97356,8.44965 5.875033,3.62155 4.759074,-4.84481 -3.787949,-2.30963 3.102894,-5.34344 z"
       style="fill:none;fill-rule:evenodd;stroke:#000000;stroke-width:0.5291667;stroke-linecap:butt;stroke-linejoin:miter;stroke-miterlimit:4;stroke-dasharray:none;stroke-opacity:1"
       inkscape:transform-center-x="-1.8694609"
       inkscape:transform-center-y="-5.1679868" />
    <path
       style="fill:none;fill-rule:evenodd;stroke:#000000;stroke-width:0.48048967;stroke-linecap:butt;stroke-linejoin:miter;stroke-miterlimit:4;stroke-dasharray:none;stroke-opacity:1"
       d="m -70.480443,203.03574 28.065107,-21.73251 v 0"
       id="path5041"
       inkscape:connector-curvature="0" />
    <path
       inkscape:transform-center-y="-5.921051"
       inkscape:transform-center-x="-1.3922474"
       style="fill:none;fill-rule:evenodd;stroke:#000000;stroke-width:0.42699018;stroke-linecap:butt;stroke-linejoin:miter;stroke-miterlimit:4;stroke-dasharray:none;stroke-opacity:1"
       d="m -21.088195,162.60757 -28.810688,25.11013 v 0 l 9.928605,3.38428 7.016717,-9.54093 -7.268049,-2.43249 5.633216,-13.32389 5.215367,-1.2035 -3.703968,8.37853 4.375323,1.99545 3.544234,-5.18415 -2.821006,-1.26438 2.310823,-5.29004 z"
       id="path5043"
       inkscape:connector-curvature="0" />
    <path
       inkscape:connector-curvature="0"
       id="path5045"
       d="m -52.88836,165.23872 -2.951006,15.5184 v 0"
       style="fill:none;fill-rule:evenodd;stroke:#000000;stroke-width:0.42528114;stroke-linecap:butt;stroke-linejoin:miter;stroke-miterlimit:4;stroke-dasharray:none;stroke-opacity:1"
       inkscape:transform-center-x="11.285224"
       inkscape:transform-center-y="-10.995961" />
    <path
       inkscape:connector-curvature="0"
       id="path5047"
       d="m -52.359818,175.84132 15.878114,-15.45218 v 0"
       style="fill:none;fill-rule:evenodd;stroke:#000000;stroke-width:0.30474746;stroke-linecap:butt;stroke-linejoin:miter;stroke-miterlimit:4;stroke-dasharray:none;stroke-opacity:1" />
    <path
       inkscape:connector-curvature="0"
       id="path5049"
       d="m -15.170843,138.12753 -22.532287,24.00511 v 0 l 7.764972,0.85665 5.48764,-8.44418 -5.684202,-0.59303 4.40563,-11.07484 4.078839,-1.81093 -2.896803,6.99208 3.421856,0.75979 2.771878,-4.54201 -2.206255,-0.47303 1.807251,-4.40989 z"
       style="fill:none;fill-rule:evenodd;stroke:#000000;stroke-width:0.5291667;stroke-linecap:butt;stroke-linejoin:miter;stroke-miterlimit:4;stroke-dasharray:none;stroke-opacity:1"
       inkscape:transform-center-x="-1.08885"
       inkscape:transform-center-y="-5.5851999" />
    <path
       inkscape:transform-center-y="-9.7988932"
       inkscape:transform-center-x="13.131697"
       style="fill:none;fill-rule:evenodd;stroke:#000000;stroke-width:0.40153778;stroke-linecap:butt;stroke-linejoin:miter;stroke-miterlimit:4;stroke-dasharray:none;stroke-opacity:1"
       d="m -38.881515,138.99953 -0.351915,13.829 v 0"
       id="path5051"
       inkscape:connector-curvature="0" />
    <path
       style="fill:none;fill-rule:evenodd;stroke:#000000;stroke-width:0.34196347;stroke-linecap:butt;stroke-linejoin:miter;stroke-miterlimit:4;stroke-dasharray:none;stroke-opacity:1"
       d="m -38.156983,125.14205 -1.281453,20.08362 v 0 l 6.353897,-6.30948 -1.370327,-5.06532 -4.629195,4.62101 -3.882093,-4.35442 1.873397,-3.46575 2.364837,2.8437 3.047583,-2.75483 -0.871387,-2.5771 -1.954053,1.77731 -1.506228,-1.77731 z"
       id="path5053"
       inkscape:connector-curvature="0" />
    <path
       style="fill:none;fill-rule:evenodd;stroke:#000000;stroke-width:0.24233176;stroke-linecap:butt;stroke-linejoin:miter;stroke-miterlimit:4;stroke-dasharray:none;stroke-opacity:1"
       d="m -39.52306,153.18439 11.93823,-14.55051 v 0"
       id="path5055"
       inkscape:connector-curvature="0" />
    <path
       inkscape:transform-center-y="-3.7164451"
       inkscape:transform-center-x="1.1130478"
       style="fill:none;fill-rule:evenodd;stroke:#000000;stroke-width:0.45931667;stroke-linecap:butt;stroke-linejoin:miter;stroke-miterlimit:4;stroke-dasharray:none;stroke-opacity:1"
       d="m -18.589176,122.49383 -8.700284,15.97323 v 0 l 5.882647,0.57002 1.29812,-5.61884 -4.295522,-0.39461 -0.315047,-7.3693 2.375736,-1.205 0.115562,4.65259 2.713141,0.50557 0.568257,-3.0223 -1.743989,-0.31476 -0.08716,-2.93438 z"
       id="path5057"
       inkscape:connector-curvature="0" />
  </g>
</svg>
